<svg xmlns="http://www.w3.org/2000/svg" xmlns:xlink="http://www.w3.org/1999/xlink" version="1.1" id="Layer_1" x="0px" y="0px" viewBox="0 0 288.7 95.5" style="enable-background:new 0 0 288.7 95.5;" xml:space="preserve" height="50px" class="injected-svg svg-image" data-src="static/media/logoCompany.46c4905d.html">
<style type="text/css">
	.st0{fill:#FFFFFF!important;}
	.st1{fill:#FFCB05!important;}
</style>
<path class="st0" d="M59.3,14.1c1.3-0.1,2.7-0.2,4.1-0.2c8.4,0,14.9,2.4,19.5,7c4.5,4.7,6.8,11.3,6.8,19.8c0,1.5-0.1,3.2-0.2,5  c-0.2,1.8-0.4,3.8-0.8,6.1C82,51.7,77,51.6,73.6,51.6s-6.6,0-9.5,0c-1.2,0-2.8,0-4.8,0v-7.3c2.4,0,5.6-0.1,9.8-0.3h0.4  c0.6-2.2,1-4.3,1.2-6.3c0.3-2,0.4-3.9,0.4-5.8c0-3.7-0.7-6.5-2.1-8.5c-1.4-1.9-3.4-2.9-6.1-2.9c-1.3,0-2.5,0.3-3.7,0.8L59.3,14.1  L59.3,14.1z M59.3,77.1c1.6,0.3,3.3,0.5,5.2,0.5c3.6,0,7.1-0.6,10.3-1.7c3.2-1.2,6.3-2.9,9.1-5.3l1.7,1.8C78.1,84,68,87.3,59.3,87.7  V77.1z M57,87.8c-10.4,0-18.4-2.8-24.2-8.4S24.1,66,24.1,55.9c0-11.7,3.8-21.6,11.3-29.8C42.1,19,50,15,59.3,14.1v7.2  c-2,0.9-3.8,2.6-5.3,5c-2.6,3.9-4.8,9.7-6.5,17.5c2.7,0.1,5,0.2,6.8,0.3s3.1,0.1,3.8,0.1c0.3,0,0.8,0,1.2,0v7.3c-1.2,0-2.5,0-4,0.1  c-3.9,0.1-7,0.1-9,0.1c-0.1,0.3-0.2,1-0.3,2c-0.3,2.3-0.4,4-0.4,5c0,5.9,1.7,10.6,5,13.9c2.3,2.3,5.2,3.8,8.7,4.5v10.7  C58.6,87.7,57.8,87.8,57,87.8z"></path>
<path class="st1" d="M54.2,0.7H65C17.5,10.8,0.1,62,27.9,95.4H15.8C-7.4,62,15.5,13,54.2,0.7z"></path>
<path class="st0" d="M221.6,77.5v-6.6c0.1,0,0.1,0,0.1,0c4.5,0,7.9-1.9,10.1-5.7c2.2-3.8,3.4-8.1,3.4-13c0-4.8-1.2-9.2-3.4-12.9  c-2.2-3.8-5.6-5.7-10.1-5.7c0,0,0,0-0.1,0V27c0.1,0,0.1,0,0.1,0c4.8,0,9.1,1.1,12.7,3.1c3.7,2.1,6.4,5,8.4,9  c1.9,3.9,2.9,8.3,2.9,13.2s-1,9.3-2.9,13.2s-4.7,6.9-8.3,9C230.9,76.5,226.6,77.5,221.6,77.5C221.7,77.5,221.7,77.5,221.6,77.5  L221.6,77.5z M250.7,28.2h9.8v29.5c0,5.3,0.9,8.9,2.7,10.6c1.8,1.7,4.1,2.6,6.9,2.6s5-0.8,6.7-2.6c1.6-1.7,2.5-5,2.5-9.9V28.2h8.6  v29.5c0,5.6-0.7,9.6-2.1,12c-1.4,2.4-3.4,4.4-5.9,5.7c-2.6,1.4-5.9,2.1-9.9,2.1c-3.9,0-7.3-0.6-10.1-1.9c-2.8-1.3-5-3.2-6.7-5.8  s-2.5-6.6-2.5-12.2L250.7,28.2L250.7,28.2z M221.6,26.9v6.6c-4.5,0-7.9,1.9-10.1,5.7c-2.2,3.8-3.4,8.1-3.4,12.9  c0,4.9,1.1,9.2,3.4,13c2.2,3.8,5.6,5.7,10.1,5.7v6.6c-4.9,0-9.1-1-12.8-3.1c-3.6-2.1-6.4-5-8.3-9s-2.9-8.3-2.9-13.2s1-9.3,2.9-13.2  s4.7-6.9,8.3-9C212.6,28,216.8,26.9,221.6,26.9L221.6,26.9z M174.7,58.4v-8.9c1.8-0.4,3.3-1.2,4.2-2.2c1.5-1.8,2.3-3.9,2.3-6.1  c0-2-0.6-3.6-1.9-4.7c-0.8-0.8-2.4-1.3-4.6-1.6v-6.7h2c3.6,0,6.4,0.4,8.3,1.3c1.8,1,3.4,2.4,4.5,4.2c1.1,1.9,1.6,4,1.6,6.4  c0,2.8-0.8,5.5-2.4,8c-1.6,2.5-3.9,4.4-6.8,5.7l15.4,22.5h-11.9L174.7,58.4z M136,28.2h1c3.9,0,6.7,0.4,8.6,1.3  c1.8,0.9,3.3,2.2,4.3,3.9c1.1,1.7,1.6,3.5,1.6,5.5c0,2.4-0.8,4.8-2.5,7s-4.6,3.9-8.9,5.3c3.4,0.8,6,1.8,7.8,3.1s3.1,2.7,4.1,4.5  c0.9,1.7,1.3,3.6,1.3,5.6c0,2.2-0.5,4.2-1.6,6.1c-1.1,1.8-2.6,3.3-4.5,4.3s-4.8,1.5-8.7,1.5H136v-7c1.5-0.1,2.6-0.3,3.4-0.6  c1.2-0.4,2.2-1.2,2.8-2.2s1-2.1,1-3.4c0-2.4-1-4.4-3.1-6.1c-1.2-0.9-2.5-1.6-4-2v-7.3c1.3-0.3,2.4-1,3.3-1.8  c1.5-1.5,2.2-3.3,2.2-5.5c0-1.2-0.2-2.2-0.7-3c-0.4-0.8-1.2-1.5-2.3-2c-0.6-0.2-1.4-0.4-2.5-0.6L136,28.2L136,28.2z M174.7,28.2v6.7  c-0.9-0.1-1.9-0.1-3-0.1h-3.4V50h2.2c1.6,0,3-0.1,4.2-0.4v8.9l-1.1-1.8h-5.4v19.7H159V28.2H174.7z M121.1,76.3V28.2H136v6.7  c-1-0.1-2.2-0.1-3.7-0.1h-1.8v13.4h2.1c1.2,0,2.4-0.1,3.4-0.4v7.3c-1.2-0.3-2.4-0.4-3.8-0.4h-1.7v14.9h1.9c1.4,0,2.6-0.1,3.6-0.1v7  h-14.9V76.3z"></path>
</svg>